# xmcd
#
# Track frame offsets:
#	182
#	14892
#	30067
#	41782
#	54610
#	69660
#	82587
#	95502
#	109662
#	124722
#
# Disc length: 1847 seconds
#
# Revision: 1
# Processed by: cddbd v1.5.2PL0 Copyright (c) Steve Scherf et al.
# Submitted via: EZCDAudioConverter 6.0.5.1
#
DISCID=7907350a
DTITLE=George Strait - Greatest Hits Volume Two
DYEAR=2003
DGENRE=Country
TTITLE0=Does Fort Worth Ever Cross Your Mind
TTITLE1=The Cowboy Rides Away
TTITLE2=The Fireman
TTITLE3=The Chair
TTITLE4=Your're Something Special to Me
TTITLE5=Nobody in His Right Mind Would've Left Her
TTITLE6=It Ain't Cool to Be Crazy About You
TTITLE7=Ocean Front Property
TTITLE8=All My Ex's Live in Texas
TTITLE9=Am I Blue
EXTD=
EXTT0=
EXTT1=
EXTT2=
EXTT3=
EXTT4=
EXTT5=
EXTT6=
EXTT7=
EXTT8=
EXTT9=
PLAYORDER=
